<svg width="360" height="60" viewBox="0 0 360 60" fill="none" xmlns="http://www.w3.org/2000/svg">
<path fill-rule="evenodd" clip-rule="evenodd" d="M39.3042 25.684L34.6094 16.1333L34.1436 16.6245L38.7093 25.9224L39.3042 25.684Z" fill="#005B89"/>
<path fill-rule="evenodd" clip-rule="evenodd" d="M47.2593 41.8671L40.7535 28.6328L40.1494 28.8553L46.6649 42.1244C46.9531 42.5542 47.2931 42.8131 47.6899 42.8843L47.8066 42.2528C47.6077 42.2648 47.4269 42.1197 47.2593 41.8671Z" fill="#005B89"/>
<path fill-rule="evenodd" clip-rule="evenodd" d="M6.07373 51.3707V43.8809H7.47546V51.3707H6.07373Z" fill="#005B89"/>
<path fill-rule="evenodd" clip-rule="evenodd" d="M17.5763 43.8701H18.9886V51.3709H18.1111V51.3816L14.1738 46.3205V51.3708H12.7612V43.8809H13.9063L17.5763 48.5245V43.8701Z" fill="#005B89"/>
<path fill-rule="evenodd" clip-rule="evenodd" d="M25.441 50.0118H26.9818C28.6831 50.0118 29.3574 48.7707 29.3253 47.551C29.293 46.3845 28.6082 45.2181 26.9818 45.2181H25.441V50.0118ZM30.727 47.5615C30.7592 49.4555 29.6035 51.3707 26.9818 51.3707C26.0617 51.3707 24.9596 51.3707 24.0396 51.3707V43.8809C24.9596 43.8809 26.0617 43.8809 26.9818 43.8809C29.5499 43.8809 30.695 45.7102 30.727 47.5615Z" fill="#005B89"/>
<path fill-rule="evenodd" clip-rule="evenodd" d="M35.521 51.3707V43.8809H36.9226V51.3707H35.521Z" fill="#005B89"/>
<path fill-rule="evenodd" clip-rule="evenodd" d="M45.4611 45.4535L44.07 48.6422H46.8523L45.4611 45.4535ZM47.419 49.9582H43.5028L42.8608 51.3707H41.3306L44.6908 43.8809H46.2316L49.5914 51.3707H48.0504L47.419 49.9582Z" fill="#005B89"/>
<path fill-rule="evenodd" clip-rule="evenodd" d="M42.4671 24.417L44.2986 24.2481L37.4243 10.1878C36.1395 8.73167 34.8095 8.45223 33.4007 10.2694L20.3439 35.7759C19.7162 36.9673 18.8514 37.6473 17.7892 37.904C2.21923 38.4989 -1.89489 14.6411 17.0206 12.4619L25.6967 12.6226C27.3274 12.5902 27.2576 9.47103 25.6967 9.2285L16.4438 9.18182C-1.32729 9.41076 -7.18117 38.7796 17.4872 41.6742C19.2964 41.6017 20.9668 40.9947 22.0927 39.8001L34.1255 15.9806C34.6607 14.8177 35.2235 14.7354 35.8207 15.9579L40.3419 25.2683L42.4671 24.417Z" fill="#005B89"/>
<path fill-rule="evenodd" clip-rule="evenodd" d="M45.574 26.8564L41.7905 28.2509L48.1548 41.3577C49.7632 42.0514 51.2589 42.0671 52.6185 41.2646L45.574 26.8564Z" fill="#005B89"/>
<path fill-rule="evenodd" clip-rule="evenodd" d="M26.7842 26.5502C35.5439 25.8195 44.6023 23.0115 53.551 20.6079C44.9526 25.045 38.8878 26.5225 31.407 28.5927L33.629 32.8919L30.9611 34.0809L26.7842 26.5502Z" fill="#EE7105"/>
<path fill-rule="evenodd" clip-rule="evenodd" d="M33.9766 29.5476C43.8776 26.4429 49.797 24.6256 58.0472 21.4985C52.1783 24.9884 44.9632 28.286 38.0723 30.9578L40.3391 35.0285L37.9246 36.4084L33.9766 29.5476Z" fill="#50AD25"/>
<path fill-rule="evenodd" clip-rule="evenodd" d="M68.4001 27.0767H73.5308L74.4485 29.5232H77.9989L72.8853 16.2208H69.1137L64 29.5232H67.5168L68.4001 27.0767ZM72.5795 24.2399H69.3859L70.9656 19.9924L72.5795 24.2399ZM81.4648 22.8297C81.4648 21.7253 81.8045 20.808 82.4841 20.0944C83.1637 19.3808 84.0133 19.024 85.0156 19.024C86.5275 19.024 87.5979 19.7206 88.1924 21.1308L91.0296 19.7376C90.5539 18.5652 89.7725 17.6649 88.6852 17.0024C87.5979 16.3399 86.3748 16 85.0327 16C83.1127 16 81.4648 16.6796 80.1057 18.0388C78.7636 19.3808 78.084 20.9947 78.084 22.8637C78.084 24.8343 78.7465 26.4652 80.0716 27.7733C81.3968 29.0813 83.0616 29.7269 85.0497 29.7269C86.9353 29.7269 88.4475 29.1324 89.6195 27.9604C90.7919 26.7709 91.3864 25.2928 91.3864 23.5432V22.2517H84.0644V24.9364H87.8865C87.7679 25.4629 87.4281 25.8877 86.8672 26.2104C86.3237 26.5332 85.7123 26.7029 85.0497 26.7029C83.9963 26.7029 83.1297 26.3292 82.4671 25.5819C81.8045 24.8343 81.4648 23.917 81.4648 22.8297ZM96.6868 24.8513H97.7743L100.441 29.5232H104.077L101.121 24.3415C102.701 23.7809 103.771 22.5409 103.771 20.5023C103.771 19.0921 103.313 18.0388 102.412 17.3081C101.512 16.5776 100.305 16.2208 98.7936 16.2208H93.3401V29.5232H96.6868V24.8513ZM96.6868 19.109H98.5219C99.8299 19.109 100.407 19.7207 100.407 20.6209C100.407 21.5045 99.7448 21.9971 98.5388 21.9971H96.6868V19.109ZM108.834 27.0767H113.965L114.882 29.5232H118.433L113.319 16.2208H109.547L104.434 29.5232H107.951L108.834 27.0767ZM113.013 24.2399H109.82L111.399 19.9924L113.013 24.2399ZM124.957 29.5232L127.692 20.5192H127.709L130.376 29.5232H133.757L137.681 16.2208H134.284L131.99 24.6472H131.956L129.323 16.2208H126.095L123.529 24.6302H123.478L121.236 16.2208H117.736L121.644 29.5232H124.957ZM141.368 27.0767H146.498L147.416 29.5232H150.967L145.853 16.2208H142.081L136.968 29.5232H140.484L141.368 27.0767ZM145.547 24.2399H142.353L143.933 19.9924L145.547 24.2399ZM152.207 16.2208V29.5232H161.143V26.4652H155.554V16.2208H152.207ZM176.756 25.7687C176.756 24.1377 175.737 22.9143 174.055 22.6425V22.5916C175.363 22.048 176.178 21.0457 176.178 19.7376C176.178 18.8369 175.889 18.0728 175.295 17.4612C174.479 16.6285 173.358 16.2208 171.931 16.2208H166.172V29.5232H172.016C173.358 29.5232 174.479 29.2004 175.38 28.5719C176.297 27.9433 176.756 27.0087 176.756 25.7687ZM172.849 20.2812C172.849 21.0287 172.305 21.4876 171.354 21.4876H169.417V19.0921H171.32C172.339 19.0921 172.849 19.4829 172.849 20.2812ZM171.88 24.1377C172.764 24.1377 173.409 24.5625 173.409 25.3778C173.409 26.1934 172.78 26.6353 171.897 26.6353H169.417V24.1377H171.88ZM182.091 24.3415H187.018V29.5232H190.381V16.2208H187.018V21.2495H182.091V16.2208H178.744V29.5232H182.091V24.3415ZM196.005 27.0767H201.135L202.053 29.5232H205.603L200.49 16.2208H196.718L191.604 29.5232H195.121L196.005 27.0767ZM200.184 24.2399H196.99L198.57 19.9924L200.184 24.2399ZM210.208 16.2208H206.844V29.5232H210.208V16.2208ZM216.409 29.5232H219.772V24.3925L224.529 16.2208H220.826L218.125 20.9947L215.457 16.2208H211.669L216.409 24.3925V29.5232ZM227.417 27.0767H232.548L233.466 29.5232H237.016L231.903 16.2208H228.131L223.017 29.5232H226.534L227.417 27.0767ZM231.597 24.2399H228.403L229.983 19.9924L231.597 24.2399ZM253.088 29.5232L250.777 26.9071C251.576 25.8196 252.136 24.5285 252.476 23.0333L250.097 22.4899C249.877 23.3561 249.52 24.1717 249.011 24.9364L248.943 24.8513L247.278 22.9653L247.957 22.5745C249.214 21.8444 249.843 20.8251 249.843 19.5505C249.843 18.5823 249.452 17.75 248.654 17.0535C247.855 16.3568 246.938 16 245.884 16C244.763 16 243.829 16.3568 243.064 17.0704C242.3 17.784 241.926 18.6332 241.926 19.6185C241.926 20.4852 242.266 21.2835 242.945 22.048L243.37 22.5238C241.841 23.5262 241.077 24.6812 241.077 25.9893C241.077 27.2128 241.501 28.1471 242.351 28.7756C243.217 29.4041 244.254 29.7099 245.477 29.7099C246.717 29.7099 247.855 29.3872 248.874 28.7416L249.571 29.5232H253.088ZM245.935 18.5483C246.615 18.5483 247.141 19.0751 247.141 19.6185C247.141 20.0604 246.938 20.4001 246.547 20.6379L245.664 21.1648L245.171 20.6039C244.848 20.2471 244.678 19.9073 244.678 19.6185C244.678 19.0751 245.205 18.5483 245.935 18.5483ZM243.931 25.7176C243.931 25.2421 244.271 24.7833 244.967 24.3245L247.141 26.7709C246.683 27.0257 246.19 27.1617 245.664 27.1617C244.729 27.1617 243.931 26.7369 243.931 25.7176ZM257.81 22.8637C257.81 24.8343 258.473 26.4652 259.798 27.7733C261.123 29.0813 262.754 29.7269 264.691 29.7269C266.118 29.7269 267.375 29.3872 268.463 28.6905C269.567 27.9944 270.348 27.0426 270.824 25.8196L267.834 24.3925C267.205 25.8367 266.169 26.5503 264.708 26.5503C263.706 26.5503 262.873 26.1935 262.211 25.4629C261.565 24.7323 261.242 23.866 261.242 22.8467C261.242 21.8273 261.582 20.9607 262.245 20.2301C262.924 19.4999 263.74 19.1431 264.708 19.1431C266.186 19.1431 267.222 19.8563 267.8 21.2664L270.756 19.8563C270.297 18.6332 269.55 17.682 268.48 17.0194C267.409 16.3398 266.169 16 264.759 16C262.805 16 261.157 16.6627 259.815 18.0047C258.473 19.3468 257.81 20.9607 257.81 22.8637ZM271.792 22.8637C271.792 24.7833 272.472 26.4141 273.814 27.7393C275.173 29.0644 276.821 29.7269 278.741 29.7269C280.661 29.7269 282.309 29.0644 283.651 27.7222C285.01 26.3801 285.689 24.7323 285.689 22.8127C285.689 20.8927 285.01 19.2788 283.668 17.9707C282.325 16.6627 280.695 16 278.775 16C276.855 16 275.207 16.6627 273.831 18.0047C272.472 19.3299 271.792 20.9437 271.792 22.8637ZM276.227 20.2301C276.906 19.4999 277.739 19.1261 278.741 19.1261C279.743 19.1261 280.576 19.4999 281.255 20.2301C281.935 20.9607 282.275 21.8444 282.275 22.8467C282.275 23.8491 281.935 24.7323 281.255 25.4799C280.576 26.2104 279.743 26.5843 278.741 26.5843C277.739 26.5843 276.906 26.2104 276.227 25.4799C275.547 24.7323 275.207 23.8491 275.207 22.8467C275.207 21.8444 275.547 20.9607 276.227 20.2301ZM299.552 21.5385V29.5232H302.831V16.2208H298.652L295.254 24.5965L291.72 16.2208H287.694V29.5232H290.905V21.6403H290.939L294.218 29.5232H296.273L299.518 21.5385H299.552ZM305.583 29.5232H308.93V24.9364H310.578C312.09 24.9364 313.33 24.5625 314.298 23.832C315.267 23.0844 315.76 21.98 315.76 20.5358C315.76 19.1261 315.301 18.0557 314.383 17.3252C313.466 16.5945 312.26 16.2208 310.782 16.2208H305.583V29.5232ZM308.93 19.1601H310.51C311.767 19.1601 312.396 19.6696 312.396 20.672C312.396 21.6063 311.767 22.0821 310.527 22.0821H308.93V19.1601ZM319.361 27.0767H324.492L325.409 29.5232H328.96L323.846 16.2208H320.075L314.961 29.5232H318.478L319.361 27.0767ZM323.541 24.2399H320.347L321.927 19.9924L323.541 24.2399ZM333.547 21.5045L338.763 29.5232H342.144V16.2208H338.814V23.7129H338.797L333.904 16.2208H330.2V29.5232H333.53V21.5045H333.547ZM348.345 29.5232H351.709V24.3925L356.466 16.2208H352.762L350.061 20.9947L347.393 16.2208H343.605L348.345 24.3925V29.5232Z" fill="#005B89"/>
<mask id="path-13-inside-1_11977_39502" fill="white">
<path fill-rule="evenodd" clip-rule="evenodd" d="M133.282 43.5176C134.332 43.5176 135.266 43.1782 135.891 42.6687C136.517 42.1596 136.92 41.5976 137.122 41.014L135.934 40.4732C135.732 41.014 135.382 41.4596 134.894 41.7991C134.417 42.1279 133.887 42.2976 133.314 42.2976C132.55 42.2976 131.882 42.0111 131.32 41.4491C130.758 40.8764 130.482 40.1444 130.482 39.2535C130.482 38.3518 130.768 37.6307 131.331 37.0686C131.893 36.5062 132.561 36.2201 133.314 36.2201C134.618 36.2201 135.489 36.9624 135.902 38.0335L137.079 37.4927C136.899 36.8989 136.496 36.3365 135.902 35.838C135.308 35.3289 134.385 35 133.335 35C132.179 35 131.193 35.4139 130.355 36.2307C129.517 37.0475 129.103 38.0656 129.103 39.2959C129.103 40.6006 129.612 41.7144 130.408 42.425C131.203 43.1143 132.222 43.5176 133.282 43.5176ZM138.5 43.422H139.805V39.8367H143.91V43.422H145.215V35.1168H143.91V38.5959H139.805V35.1168H138.5V43.422ZM146.275 43.422H147.612L148.376 41.4703H152.448L153.202 43.422H154.559L151.197 35.1168H149.659L146.275 43.422ZM150.412 36.3683L151.992 40.3142H148.842L150.412 36.3683ZM155.641 43.422H156.946V40.2718H158.526L160.33 43.422H161.804L159.831 40.0491C160.944 39.6776 161.592 38.8291 161.592 37.6729C161.592 36.9412 161.358 36.3366 160.902 35.8486C160.446 35.3607 159.725 35.1168 158.76 35.1168H155.641V43.422ZM156.946 36.3259H158.622C159.98 36.3259 160.266 37.0685 160.266 37.7051C160.266 38.4685 159.778 39.0944 158.622 39.0944H156.946V36.3259ZM162.26 36.3259H164.89V43.422H166.195V36.3259H168.836V35.1168H162.26V36.3259ZM175.423 36.2941V35.1168H170.109V43.422H175.465V42.2342H171.413V39.7839H175.062V38.6066H171.413V36.2941H175.423ZM177.141 43.422H178.446V40.2718H180.026L181.829 43.422H183.304L181.331 40.0491C182.444 39.6776 183.091 38.8291 183.091 37.6729C183.091 36.9412 182.858 36.3366 182.402 35.8486C181.946 35.3607 181.225 35.1168 180.259 35.1168H177.141V43.422ZM178.446 36.3259H180.121C181.479 36.3259 181.765 37.0685 181.765 37.7051C181.765 38.4685 181.278 39.0944 180.121 39.0944H178.446V36.3259ZM190.081 36.2941V35.1168H184.767V43.422H190.124V42.2342H186.072V39.7839H189.721V38.6066H186.072V36.2941H190.081ZM198.864 39.2747C198.864 38.2248 198.408 36.9624 197.379 36.0822C196.71 35.4986 195.66 35.1168 194.43 35.1168H191.799V43.422H194.451C195.925 43.422 197.135 42.8705 197.814 42.0644C198.503 41.2476 198.864 40.2612 198.864 39.2747ZM197.496 39.2747C197.496 39.9959 197.251 40.6852 196.774 41.2688C196.297 41.8308 195.448 42.213 194.398 42.213H193.104V36.3259H194.409C195.459 36.3259 196.308 36.7292 196.774 37.323C197.251 37.9066 197.496 38.5959 197.496 39.2747ZM201.876 43.422H203.212L203.976 41.4703H208.049L208.802 43.422H210.16L206.798 35.1168H205.259L201.876 43.422ZM206.013 36.3683L207.593 40.3142H204.443L206.013 36.3683ZM214.657 43.5176C215.708 43.5176 216.641 43.1782 217.267 42.6687C217.893 42.1596 218.295 41.5976 218.497 41.014L217.309 40.4732C217.107 41.014 216.757 41.4596 216.27 41.7991C215.792 42.1279 215.262 42.2976 214.689 42.2976C213.925 42.2976 213.257 42.0111 212.695 41.4491C212.133 40.8764 211.857 40.1444 211.857 39.2535C211.857 38.3518 212.143 37.6307 212.706 37.0686C213.268 36.5062 213.936 36.2201 214.689 36.2201C215.994 36.2201 216.864 36.9624 217.277 38.0335L218.455 37.4927C218.274 36.8989 217.871 36.3365 217.277 35.838C216.683 35.3289 215.761 35 214.711 35C213.554 35 212.568 35.4139 211.73 36.2307C210.892 37.0475 210.478 38.0656 210.478 39.2959C210.478 40.6006 210.987 41.7144 211.783 42.425C212.578 43.1143 213.597 43.5176 214.657 43.5176ZM223.503 43.5176C224.554 43.5176 225.487 43.1782 226.113 42.6687C226.738 42.1596 227.141 41.5976 227.343 41.014L226.155 40.4732C225.953 41.014 225.603 41.4596 225.116 41.7991C224.638 42.1279 224.108 42.2976 223.535 42.2976C222.771 42.2976 222.103 42.0111 221.541 41.4491C220.979 40.8764 220.703 40.1444 220.703 39.2535C220.703 38.3518 220.989 37.6307 221.552 37.0686C222.114 36.5062 222.782 36.2201 223.535 36.2201C224.84 36.2201 225.71 36.9624 226.123 38.0335L227.3 37.4927C227.12 36.8989 226.717 36.3365 226.123 35.838C225.529 35.3289 224.606 35 223.556 35C222.4 35 221.414 35.4139 220.576 36.2307C219.738 37.0475 219.324 38.0656 219.324 39.2959C219.324 40.6006 219.833 41.7144 220.629 42.425C221.424 43.1143 222.443 43.5176 223.503 43.5176ZM228.17 39.2854C228.17 40.505 228.584 41.5126 229.4 42.3187C230.217 43.1143 231.225 43.5176 232.413 43.5176C233.601 43.5176 234.609 43.1143 235.446 42.2976C236.284 41.4808 236.698 40.4627 236.698 39.2535C236.698 38.0444 236.284 37.0364 235.457 36.2201C234.64 35.4033 233.633 35 232.445 35C231.267 35 230.26 35.4139 229.422 36.2412C228.584 37.0685 228.17 38.0868 228.17 39.2854ZM232.434 42.3081C231.617 42.3081 230.939 42.0111 230.376 41.4174C229.814 40.8232 229.538 40.102 229.538 39.2535C229.538 38.4051 229.814 37.6835 230.376 37.1004C230.939 36.5062 231.617 36.2091 232.434 36.2091C233.24 36.2091 233.919 36.5062 234.481 37.1004C235.044 37.6835 235.33 38.4051 235.33 39.2535C235.33 40.102 235.044 40.8232 234.481 41.4174C233.919 42.0111 233.24 42.3081 232.434 42.3081ZM243.328 35.1168V40.2506C243.328 41.4703 242.606 42.2976 241.408 42.2976C240.262 42.2976 239.477 41.4914 239.477 40.2083V35.1168H238.173V40.2612C238.173 41.2264 238.448 42.022 238.989 42.6264C239.53 43.2311 240.336 43.5282 241.386 43.5282C242.437 43.5282 243.242 43.2311 243.794 42.6264C244.356 42.022 244.632 41.2054 244.632 40.1976V35.1168H243.328ZM252.227 43.422H253.584V35.1168H252.29V41.2371L248.196 35.1168H246.658V43.422H247.942V37.0259L252.227 43.422ZM254.857 36.3259H257.488V43.422H258.793V36.3259H261.434V35.1168H254.857V36.3259ZM260.872 43.422H262.208L262.972 41.4703H267.045L267.798 43.422H269.156L265.793 35.1168H264.255L260.872 43.422ZM265.008 36.3683L266.589 40.3142H263.438L265.008 36.3683ZM275.806 43.422H277.164V35.1168H275.87V41.2371L271.776 35.1168H270.237V43.422H271.521V37.0259L275.806 43.422ZM278.437 36.3259H281.067V43.422H282.372V36.3259H285.013V35.1168H278.437V36.3259ZM288.545 43.5176C289.404 43.5176 290.094 43.284 290.603 42.8067C291.112 42.3293 291.366 41.7673 291.366 41.1203C291.366 40.5155 291.165 40.0169 290.772 39.6352C290.38 39.2429 289.669 38.893 288.641 38.5854C287.622 38.2776 287.102 37.9383 287.102 37.3124C287.102 36.6442 287.686 36.1774 288.492 36.1774C289.287 36.1774 289.85 36.5702 290.168 37.3442L291.25 36.7609C290.857 35.7321 289.924 35 288.524 35C287.749 35 287.102 35.2336 286.562 35.7C286.031 36.1563 285.766 36.7187 285.766 37.3868C285.766 38.0229 285.978 38.532 286.403 38.9036C286.805 39.2641 287.452 39.5824 288.354 39.8688C289.542 40.24 290.019 40.59 290.019 41.1947C290.019 41.8842 289.415 42.3293 288.566 42.3293C287.665 42.3293 286.943 41.8414 286.593 40.9506L285.49 41.5235C285.957 42.7961 287.092 43.5176 288.545 43.5176Z"/>
</mask>
<path fill-rule="evenodd" clip-rule="evenodd" d="M133.282 43.5176C134.332 43.5176 135.266 43.1782 135.891 42.6687C136.517 42.1596 136.92 41.5976 137.122 41.014L135.934 40.4732C135.732 41.014 135.382 41.4596 134.894 41.7991C134.417 42.1279 133.887 42.2976 133.314 42.2976C132.55 42.2976 131.882 42.0111 131.32 41.4491C130.758 40.8764 130.482 40.1444 130.482 39.2535C130.482 38.3518 130.768 37.6307 131.331 37.0686C131.893 36.5062 132.561 36.2201 133.314 36.2201C134.618 36.2201 135.489 36.9624 135.902 38.0335L137.079 37.4927C136.899 36.8989 136.496 36.3365 135.902 35.838C135.308 35.3289 134.385 35 133.335 35C132.179 35 131.193 35.4139 130.355 36.2307C129.517 37.0475 129.103 38.0656 129.103 39.2959C129.103 40.6006 129.612 41.7144 130.408 42.425C131.203 43.1143 132.222 43.5176 133.282 43.5176ZM138.5 43.422H139.805V39.8367H143.91V43.422H145.215V35.1168H143.91V38.5959H139.805V35.1168H138.5V43.422ZM146.275 43.422H147.612L148.376 41.4703H152.448L153.202 43.422H154.559L151.197 35.1168H149.659L146.275 43.422ZM150.412 36.3683L151.992 40.3142H148.842L150.412 36.3683ZM155.641 43.422H156.946V40.2718H158.526L160.33 43.422H161.804L159.831 40.0491C160.944 39.6776 161.592 38.8291 161.592 37.6729C161.592 36.9412 161.358 36.3366 160.902 35.8486C160.446 35.3607 159.725 35.1168 158.76 35.1168H155.641V43.422ZM156.946 36.3259H158.622C159.98 36.3259 160.266 37.0685 160.266 37.7051C160.266 38.4685 159.778 39.0944 158.622 39.0944H156.946V36.3259ZM162.26 36.3259H164.89V43.422H166.195V36.3259H168.836V35.1168H162.26V36.3259ZM175.423 36.2941V35.1168H170.109V43.422H175.465V42.2342H171.413V39.7839H175.062V38.6066H171.413V36.2941H175.423ZM177.141 43.422H178.446V40.2718H180.026L181.829 43.422H183.304L181.331 40.0491C182.444 39.6776 183.091 38.8291 183.091 37.6729C183.091 36.9412 182.858 36.3366 182.402 35.8486C181.946 35.3607 181.225 35.1168 180.259 35.1168H177.141V43.422ZM178.446 36.3259H180.121C181.479 36.3259 181.765 37.0685 181.765 37.7051C181.765 38.4685 181.278 39.0944 180.121 39.0944H178.446V36.3259ZM190.081 36.2941V35.1168H184.767V43.422H190.124V42.2342H186.072V39.7839H189.721V38.6066H186.072V36.2941H190.081ZM198.864 39.2747C198.864 38.2248 198.408 36.9624 197.379 36.0822C196.71 35.4986 195.66 35.1168 194.43 35.1168H191.799V43.422H194.451C195.925 43.422 197.135 42.8705 197.814 42.0644C198.503 41.2476 198.864 40.2612 198.864 39.2747ZM197.496 39.2747C197.496 39.9959 197.251 40.6852 196.774 41.2688C196.297 41.8308 195.448 42.213 194.398 42.213H193.104V36.3259H194.409C195.459 36.3259 196.308 36.7292 196.774 37.323C197.251 37.9066 197.496 38.5959 197.496 39.2747ZM201.876 43.422H203.212L203.976 41.4703H208.049L208.802 43.422H210.16L206.798 35.1168H205.259L201.876 43.422ZM206.013 36.3683L207.593 40.3142H204.443L206.013 36.3683ZM214.657 43.5176C215.708 43.5176 216.641 43.1782 217.267 42.6687C217.893 42.1596 218.295 41.5976 218.497 41.014L217.309 40.4732C217.107 41.014 216.757 41.4596 216.27 41.7991C215.792 42.1279 215.262 42.2976 214.689 42.2976C213.925 42.2976 213.257 42.0111 212.695 41.4491C212.133 40.8764 211.857 40.1444 211.857 39.2535C211.857 38.3518 212.143 37.6307 212.706 37.0686C213.268 36.5062 213.936 36.2201 214.689 36.2201C215.994 36.2201 216.864 36.9624 217.277 38.0335L218.455 37.4927C218.274 36.8989 217.871 36.3365 217.277 35.838C216.683 35.3289 215.761 35 214.711 35C213.554 35 212.568 35.4139 211.73 36.2307C210.892 37.0475 210.478 38.0656 210.478 39.2959C210.478 40.6006 210.987 41.7144 211.783 42.425C212.578 43.1143 213.597 43.5176 214.657 43.5176ZM223.503 43.5176C224.554 43.5176 225.487 43.1782 226.113 42.6687C226.738 42.1596 227.141 41.5976 227.343 41.014L226.155 40.4732C225.953 41.014 225.603 41.4596 225.116 41.7991C224.638 42.1279 224.108 42.2976 223.535 42.2976C222.771 42.2976 222.103 42.0111 221.541 41.4491C220.979 40.8764 220.703 40.1444 220.703 39.2535C220.703 38.3518 220.989 37.6307 221.552 37.0686C222.114 36.5062 222.782 36.2201 223.535 36.2201C224.84 36.2201 225.71 36.9624 226.123 38.0335L227.3 37.4927C227.12 36.8989 226.717 36.3365 226.123 35.838C225.529 35.3289 224.606 35 223.556 35C222.4 35 221.414 35.4139 220.576 36.2307C219.738 37.0475 219.324 38.0656 219.324 39.2959C219.324 40.6006 219.833 41.7144 220.629 42.425C221.424 43.1143 222.443 43.5176 223.503 43.5176ZM228.17 39.2854C228.17 40.505 228.584 41.5126 229.4 42.3187C230.217 43.1143 231.225 43.5176 232.413 43.5176C233.601 43.5176 234.609 43.1143 235.446 42.2976C236.284 41.4808 236.698 40.4627 236.698 39.2535C236.698 38.0444 236.284 37.0364 235.457 36.2201C234.64 35.4033 233.633 35 232.445 35C231.267 35 230.26 35.4139 229.422 36.2412C228.584 37.0685 228.17 38.0868 228.17 39.2854ZM232.434 42.3081C231.617 42.3081 230.939 42.0111 230.376 41.4174C229.814 40.8232 229.538 40.102 229.538 39.2535C229.538 38.4051 229.814 37.6835 230.376 37.1004C230.939 36.5062 231.617 36.2091 232.434 36.2091C233.24 36.2091 233.919 36.5062 234.481 37.1004C235.044 37.6835 235.33 38.4051 235.33 39.2535C235.33 40.102 235.044 40.8232 234.481 41.4174C233.919 42.0111 233.24 42.3081 232.434 42.3081ZM243.328 35.1168V40.2506C243.328 41.4703 242.606 42.2976 241.408 42.2976C240.262 42.2976 239.477 41.4914 239.477 40.2083V35.1168H238.173V40.2612C238.173 41.2264 238.448 42.022 238.989 42.6264C239.53 43.2311 240.336 43.5282 241.386 43.5282C242.437 43.5282 243.242 43.2311 243.794 42.6264C244.356 42.022 244.632 41.2054 244.632 40.1976V35.1168H243.328ZM252.227 43.422H253.584V35.1168H252.29V41.2371L248.196 35.1168H246.658V43.422H247.942V37.0259L252.227 43.422ZM254.857 36.3259H257.488V43.422H258.793V36.3259H261.434V35.1168H254.857V36.3259ZM260.872 43.422H262.208L262.972 41.4703H267.045L267.798 43.422H269.156L265.793 35.1168H264.255L260.872 43.422ZM265.008 36.3683L266.589 40.3142H263.438L265.008 36.3683ZM275.806 43.422H277.164V35.1168H275.87V41.2371L271.776 35.1168H270.237V43.422H271.521V37.0259L275.806 43.422ZM278.437 36.3259H281.067V43.422H282.372V36.3259H285.013V35.1168H278.437V36.3259ZM288.545 43.5176C289.404 43.5176 290.094 43.284 290.603 42.8067C291.112 42.3293 291.366 41.7673 291.366 41.1203C291.366 40.5155 291.165 40.0169 290.772 39.6352C290.38 39.2429 289.669 38.893 288.641 38.5854C287.622 38.2776 287.102 37.9383 287.102 37.3124C287.102 36.6442 287.686 36.1774 288.492 36.1774C289.287 36.1774 289.85 36.5702 290.168 37.3442L291.25 36.7609C290.857 35.7321 289.924 35 288.524 35C287.749 35 287.102 35.2336 286.562 35.7C286.031 36.1563 285.766 36.7187 285.766 37.3868C285.766 38.0229 285.978 38.532 286.403 38.9036C286.805 39.2641 287.452 39.5824 288.354 39.8688C289.542 40.24 290.019 40.59 290.019 41.1947C290.019 41.8842 289.415 42.3293 288.566 42.3293C287.665 42.3293 286.943 41.8414 286.593 40.9506L285.49 41.5235C285.957 42.7961 287.092 43.5176 288.545 43.5176Z" fill="#1B1918" stroke="#4D4D4D" stroke-width="2.66667" mask="url(#path-13-inside-1_11977_39502)"/>
<line x1="124" y1="39.5" x2="64" y2="39.5" stroke="#4D4D4D"/>
<line x1="356" y1="39.5" x2="296" y2="39.5" stroke="#4D4D4D"/>
</svg>
